<svg width="335" height="317" viewBox="0 0 335 317" fill="none" xmlns="http://www.w3.org/2000/svg">
<path d="M167.5 18.6988C209.17 -9.88669 266.622 -5.69746 303.666 31.2665C345.445 72.9551 345.445 140.546 303.666 182.234L229.909 255.831C228.865 256.873 227.171 256.873 226.127 255.831L199.65 229.412C198.606 228.37 198.606 226.68 199.65 225.638L273.407 152.041C298.474 127.028 298.474 86.4732 273.407 61.46C253.644 41.7403 224.201 37.5671 200.342 48.9404L243.148 91.6536C251.503 99.9913 251.503 113.509 243.148 121.847L229.909 135.057C228.865 136.099 227.171 136.099 226.127 135.057L152.37 61.46C127.303 36.4469 86.6607 36.4469 61.5933 61.46C36.5259 86.4732 36.5259 127.028 61.5933 152.041L106.982 197.331L137.241 167.138L91.8524 121.847C83.4966 113.509 83.4966 99.9913 91.8524 91.6536C100.208 83.3159 113.756 83.3159 122.111 91.6536L195.868 165.25C196.912 166.293 196.912 167.982 195.868 169.025L108.873 255.831C107.829 256.873 106.135 256.873 105.091 255.831L31.3343 182.234C-10.4448 140.546 -10.4448 72.9551 31.3343 31.2665C68.3783 -5.69746 125.83 -9.88669 167.5 18.6988Z" fill="#FF9F0D"/>
<path d="M182.63 303.009C174.274 311.346 160.726 311.346 152.37 303.009C144.015 294.671 144.015 281.153 152.37 272.815C160.726 264.477 174.274 264.477 182.63 272.815C190.985 281.153 190.985 294.671 182.63 303.009Z" fill="#FF9F0D"/>
<path d="M165.609 259.605C166.653 258.563 168.347 258.563 169.391 259.605L195.868 286.025C196.912 287.067 196.912 288.757 195.868 289.799L169.391 316.218C168.347 317.261 166.653 317.261 165.609 316.218L139.132 289.799C138.088 288.757 138.088 287.067 139.132 286.025L165.609 259.605Z" fill="#FF9F0D"/>
</svg>
